<svg width="270" height="100" viewBox="0 0 270 100" fill="none" xmlns="http://www.w3.org/2000/svg">
<rect width="100" height="100" rx="20" fill="#2CB1BC"/>
<path d="M81.5909 32.3523V20.1818H24.25V32.3523H45.625V90H60.2159V32.3523H81.5909Z" fill="white"/>
<path d="M128.705 45.1761V39.0909H157.375V45.1761H146.688V74H139.392V45.1761H128.705ZM165.864 74.4943C164.193 74.4943 162.705 74.2045 161.398 73.625C160.091 73.0341 159.057 72.1648 158.295 71.017C157.545 69.858 157.17 68.4148 157.17 66.6875C157.17 65.233 157.438 64.0114 157.972 63.0227C158.506 62.0341 159.233 61.2386 160.153 60.6364C161.074 60.0341 162.119 59.5795 163.29 59.2727C164.472 58.9659 165.71 58.75 167.006 58.625C168.528 58.4659 169.756 58.3182 170.688 58.1818C171.619 58.0341 172.295 57.8182 172.716 57.5341C173.136 57.25 173.347 56.8295 173.347 56.2727V56.1705C173.347 55.0909 173.006 54.2557 172.324 53.6648C171.653 53.0739 170.699 52.7784 169.46 52.7784C168.153 52.7784 167.114 53.0682 166.341 53.6477C165.568 54.2159 165.057 54.9318 164.807 55.7955L158.091 55.25C158.432 53.6591 159.102 52.2841 160.102 51.125C161.102 49.9545 162.392 49.0568 163.972 48.4318C165.563 47.7955 167.403 47.4773 169.494 47.4773C170.949 47.4773 172.341 47.6477 173.67 47.9886C175.011 48.3295 176.199 48.858 177.233 49.5739C178.278 50.2898 179.102 51.2102 179.705 52.3352C180.307 53.4489 180.608 54.7841 180.608 56.3409V74H173.722V70.3693H173.517C173.097 71.1875 172.534 71.9091 171.83 72.5341C171.125 73.1477 170.278 73.6307 169.29 73.983C168.301 74.3239 167.159 74.4943 165.864 74.4943ZM167.943 69.483C169.011 69.483 169.955 69.2727 170.773 68.8523C171.591 68.4205 172.233 67.8409 172.699 67.1136C173.165 66.3864 173.398 65.5625 173.398 64.642V61.8636C173.17 62.0114 172.858 62.1477 172.46 62.2727C172.074 62.3864 171.636 62.4943 171.148 62.5966C170.659 62.6875 170.17 62.7727 169.682 62.8523C169.193 62.9205 168.75 62.983 168.352 63.0398C167.5 63.1648 166.756 63.3636 166.119 63.6364C165.483 63.9091 164.989 64.2784 164.636 64.7443C164.284 65.1989 164.108 65.767 164.108 66.4489C164.108 67.4375 164.466 68.1932 165.182 68.7159C165.909 69.2273 166.83 69.483 167.943 69.483ZM192.31 47.8182L197.116 56.9716L202.043 47.8182H209.491L201.906 60.9091L209.696 74H202.281L197.116 64.9489L192.037 74H184.537L192.31 60.9091L184.81 47.8182H192.31ZM224.798 74.5114C222.105 74.5114 219.787 73.9659 217.844 72.875C215.912 71.7727 214.423 70.2159 213.378 68.2045C212.332 66.1818 211.81 63.7898 211.81 61.0284C211.81 58.3352 212.332 55.9716 213.378 53.9375C214.423 51.9034 215.895 50.3182 217.793 49.1818C219.702 48.0455 221.94 47.4773 224.509 47.4773C226.236 47.4773 227.844 47.7557 229.332 48.3125C230.832 48.858 232.139 49.6818 233.253 50.7841C234.378 51.8864 235.253 53.2727 235.878 54.9432C236.503 56.6023 236.815 58.5455 236.815 60.7727V62.767H214.707V58.267H229.98C229.98 57.2216 229.753 56.2955 229.298 55.4886C228.844 54.6818 228.213 54.0511 227.406 53.5966C226.611 53.1307 225.685 52.8977 224.628 52.8977C223.526 52.8977 222.548 53.1534 221.696 53.6648C220.855 54.1648 220.196 54.8409 219.719 55.6932C219.241 56.5341 218.997 57.4716 218.986 58.5057V62.7841C218.986 64.0795 219.224 65.1989 219.702 66.142C220.19 67.0852 220.878 67.8125 221.764 68.3239C222.651 68.8352 223.702 69.0909 224.918 69.0909C225.724 69.0909 226.463 68.9773 227.134 68.75C227.804 68.5227 228.378 68.1818 228.855 67.7273C229.332 67.2727 229.696 66.7159 229.946 66.0568L236.662 66.5C236.321 68.1136 235.622 69.5227 234.565 70.7273C233.52 71.9205 232.168 72.8523 230.509 73.5227C228.861 74.1818 226.957 74.5114 224.798 74.5114ZM251.202 74.4261C249.213 74.4261 247.412 73.9148 245.798 72.892C244.196 71.858 242.923 70.3409 241.98 68.3409C241.048 66.3295 240.582 63.8636 240.582 60.9432C240.582 57.9432 241.065 55.4489 242.031 53.4602C242.997 51.4602 244.281 49.9659 245.884 48.9773C247.497 47.9773 249.264 47.4773 251.185 47.4773C252.651 47.4773 253.872 47.7273 254.849 48.2273C255.838 48.7159 256.634 49.3295 257.236 50.0682C257.849 50.7955 258.315 51.5114 258.634 52.2159H258.855V39.0909H266.099V74H258.94V69.8068H258.634C258.293 70.5341 257.81 71.2557 257.185 71.9716C256.571 72.6761 255.77 73.2614 254.781 73.7273C253.804 74.1932 252.611 74.4261 251.202 74.4261ZM253.503 68.6477C254.673 68.6477 255.662 68.3295 256.469 67.6932C257.287 67.0455 257.912 66.142 258.344 64.983C258.787 63.8239 259.009 62.4659 259.009 60.9091C259.009 59.3523 258.793 58 258.361 56.8523C257.929 55.7045 257.304 54.8182 256.486 54.1932C255.668 53.5682 254.673 53.2557 253.503 53.2557C252.31 53.2557 251.304 53.5795 250.486 54.2273C249.668 54.875 249.048 55.7727 248.628 56.9205C248.207 58.0682 247.997 59.3977 247.997 60.9091C247.997 62.4318 248.207 63.7784 248.628 64.9489C249.06 66.108 249.679 67.017 250.486 67.6761C251.304 68.3239 252.31 68.6477 253.503 68.6477Z" fill="#2CB1BC"/>
</svg>
